<svg width="22" height="30" viewBox="0 0 22 30" fill="none" xmlns="http://www.w3.org/2000/svg">
<path d="M15.5553 9.51462L8.50907 3.50506H4.34537V1.1073H10.1105L19.7546 9.39321" stroke="white" stroke-width="0.5" stroke-linecap="round" stroke-linejoin="round"/>
<path d="M7.54778 20.5927L14.594 26.6022L18.7578 26.6022L18.7578 29L12.9926 29L3.34849 20.7141" stroke="white" stroke-width="0.5" stroke-linecap="round" stroke-linejoin="round"/>
<path d="M1 5.27283L1 24.6062" stroke="white" stroke-width="0.5"/>
<rect x="2.74503" y="19.5677" width="2.41815" height="3.62778" fill="black" stroke="white" stroke-width="0.5"/>
<path d="M21 24.4169V5.65979H4.91459V24.4169H21Z" fill="black"/>
<path d="M1 5.65979H4.91459M1 24.4169H4.91459M4.91459 24.4169H21V5.65979H4.91459M4.91459 24.4169V5.65979" stroke="white" stroke-width="0.5" stroke-linecap="round" stroke-linejoin="round"/>
<path d="M7.61853 22.5352V19.1966H18.1523V22.5352H7.61853Z" fill="black" stroke="white" stroke-width="0.5" stroke-linecap="round" stroke-linejoin="round"/>
<path d="M8.75772 11.912H17.2986M8.75772 14.0973H14.9232" stroke="white" stroke-width="0.5" stroke-linecap="round" stroke-linejoin="round"/>
<path d="M6.83694 1.03571C6.83694 1.51239 6.52038 1.82143 6.21737 1.82143C5.91437 1.82143 5.59781 1.51239 5.59781 1.03571C5.59781 0.559041 5.91437 0.25 6.21737 0.25C6.52038 0.25 6.83694 0.559041 6.83694 1.03571Z" fill="black" stroke="white" stroke-width="0.5"/>
</svg>
