<svg width="24" height="28" viewBox="0 0 24 28" fill="none" xmlns="http://www.w3.org/2000/svg">
<path d="M23.2797 8.08625V26.4519H5.59991V2.46692H17.9498L17.966 2.48405M23.2797 8.08625L17.966 2.48405M23.2797 8.08625H17.966V2.48405" stroke="white" stroke-width="0.5" stroke-linecap="round" stroke-linejoin="round"/>
<path d="M8.84991 13.4317H19.2498M8.84991 16.6524H16.3573" stroke="white" stroke-width="0.5" stroke-linecap="round" stroke-linejoin="round"/>
<path d="M9.36362 3.04323C9.39072 2.84738 9.67374 2.84738 9.70083 3.04323C9.74158 3.33774 9.97236 3.56915 10.2643 3.61403C10.4784 3.64696 10.4784 3.95945 10.2643 3.99238C9.97236 4.03726 9.74158 4.26867 9.70083 4.56318C9.67374 4.75903 9.39072 4.75903 9.36362 4.56318C9.32288 4.26867 9.09209 4.03726 8.80019 3.99238C8.58602 3.95945 8.58602 3.64696 8.80019 3.61403C9.09209 3.56915 9.32288 3.33774 9.36362 3.04323Z" fill="black" stroke="white" stroke-width="0.5"/>
<path d="M13.9673 5.7776C13.9719 5.74419 13.9843 5.73054 13.9933 5.72335C14.0053 5.7138 14.025 5.70585 14.0496 5.70585C14.0742 5.70585 14.0939 5.7138 14.1059 5.72335C14.115 5.73054 14.1274 5.74419 14.132 5.7776C14.1675 6.03398 14.3683 6.2352 14.6221 6.27423C14.6585 6.27982 14.6752 6.29406 14.6847 6.30626C14.6965 6.32135 14.7055 6.34477 14.7055 6.37301C14.7055 6.40124 14.6965 6.42466 14.6847 6.43975C14.6752 6.45195 14.6585 6.46619 14.6221 6.47178C14.3683 6.51081 14.1675 6.71204 14.132 6.96841C14.1274 7.00183 14.115 7.01547 14.1059 7.02266C14.0939 7.03221 14.0742 7.04016 14.0496 7.04016C14.025 7.04016 14.0053 7.03221 13.9933 7.02266C13.9843 7.01547 13.9719 7.00183 13.9673 6.96841C13.9318 6.71204 13.731 6.51081 13.4771 6.47178C13.4408 6.46619 13.4241 6.45195 13.4145 6.43975C13.4027 6.42466 13.3937 6.40124 13.3937 6.37301C13.3937 6.34477 13.4027 6.32135 13.4145 6.30626C13.4241 6.29406 13.4408 6.27982 13.4771 6.27423C13.731 6.2352 13.9318 6.03398 13.9673 5.7776Z" fill="black" stroke="white" stroke-width="0.5"/>
<rect x="0.100308" y="0.353068" width="1.52526" height="19.7495" rx="0.76263" transform="matrix(0.854868 0.520415 -0.453638 0.891856 9.61088 8.07222)" fill="black" stroke="white" stroke-width="0.5" stroke-linejoin="round"/>
<line y1="-0.25" x2="1.40125" y2="-0.25" transform="matrix(0.863481 0.504381 -0.465187 0.885212 8.51181 10.8417)" stroke="white" stroke-width="0.5"/>
<line y1="-0.25" x2="1.40125" y2="-0.25" transform="matrix(0.863481 0.504381 -0.465187 0.885212 0.735657 25.6392)" stroke="white" stroke-width="0.5"/>
</svg>
