<svg width="27" height="28" viewBox="0 0 27 28" fill="none" xmlns="http://www.w3.org/2000/svg">
<path d="M10.1963 10.3587H5C2.79086 10.3587 1 12.1495 1 14.3587V20.283C1 22.4922 2.79086 24.283 5 24.283H9.67187M16.2344 12.8718C14.0987 12.8718 12.9013 12.8718 10.7656 12.8718M16.2344 12.8718L17.4062 8.11719L13.3437 3.97384M16.2344 12.8718L16.4624 12.0568M16.2344 12.8718C17.9531 12.8718 18.2656 14.9096 15.6094 14.9096M10.7656 12.8718L10.5781 12.0568M10.7656 12.8718C9.125 13.2794 8.89062 14.9096 11.3906 14.9096M13.3437 3.97384L9.67187 8.11719L10.5781 12.0568M13.3437 3.97384V7.57384M13.3437 7.57384C11.4687 7.57384 11.4687 9.88325 13.3437 9.88325C15.2187 9.88325 15.2187 7.57384 13.3437 7.57384ZM7.17187 6.96262C8.8678 0.924251 17.7815 0.622375 19.8281 6.96262M7.17187 6.96262H6.23437V8.4716H8.10937V6.96262H7.17187ZM19.8281 6.96262H18.8125V8.4716H20.7656V6.96262H19.8281ZM6.9375 2.20789L13.3437 2.18509L19.4375 2.20789M6.9375 2.20789C6.9375 0.713572 4.20469 0.509734 4.20469 2.13989C4.20469 3.77005 6.9375 3.83805 6.9375 2.20789ZM10.5781 12.0568H3.26562V22.2453H23.5781V12.0568H16.4624M16.4624 12.0568L16.9375 10.3587H22C24.2091 10.3587 26 12.1495 26 14.3587V20.283C26 22.4921 24.2091 24.283 22 24.283H17.4062M15.6094 14.9096C12.9531 14.9096 13.8906 14.9096 11.3906 14.9096M15.6094 14.9096V16.7281C15.6094 17.8326 14.7139 18.7281 13.6094 18.7281H13.3906C12.2861 18.7281 11.3906 17.8326 11.3906 16.7281V14.9096M9.67187 24.283V27H17.4062M9.67187 24.283H17.4062M17.4062 27V24.283M17.4062 27H19.8281H7.17187M19.4375 2.20789C19.4375 3.83804 22.0937 3.83805 22.0937 2.20789C22.0937 0.713572 19.4375 0.78157 19.4375 2.20789ZM9.51562 17.219H8.89062V17.7092H9.51562V17.219ZM6.9375 17.219H7.5625V17.7092H6.9375V17.219ZM5.53125 17.219H4.90625V17.7092H5.53125V17.219ZM17.9531 17.219H17.25V17.7092H17.9531V17.219ZM19.4375 17.219V17.7092H20.0625V17.219H19.4375ZM21.4687 17.219H22.1719V17.7092H21.4687V17.219Z" stroke="white" stroke-width="0.5"/>
</svg>
