<svg width="22" height="31" viewBox="0 0 22 31" fill="none" xmlns="http://www.w3.org/2000/svg">
<path d="M9.15961 11.875L11.4762 15.5L11 16.0178L11.9524 17.0536C12.3534 17.7538 11.4514 18.288 10.4929 17.9137L9.33401 16.2742C7.35909 16.7121 5.95765 15.2943 7.15961 12.9625L9.15961 11.875Z" fill="white"/>
<path d="M12.4921 15.0844L10.0476 11.3571L10.9365 9.66166C11.6059 9.05574 11.9367 9.21674 12.4921 9.89743L15.1587 13.6698C15.5256 14.5714 15.349 14.8299 14.7143 15.0844L12.4921 15.0844Z" fill="white"/>
<path d="M9.15961 11.875L11.4762 15.5L11 16.0178L11.9524 17.0536C12.3534 17.7538 11.4514 18.288 10.4929 17.9137L9.33401 16.2742C7.35909 16.7121 5.95765 15.2943 7.15961 12.9625L9.15961 11.875Z" stroke="white" stroke-width="0.5"/>
<path d="M12.4921 15.0844L10.0476 11.3571L10.9365 9.66166C11.6059 9.05574 11.9367 9.21674 12.4921 9.89743L15.1587 13.6698C15.5256 14.5714 15.349 14.8299 14.7143 15.0844L12.4921 15.0844Z" stroke="white" stroke-width="0.5"/>
<path d="M5.22222 8.07317H4.11111V9.25203M4.11111 19.1545V20.3333H5.22222M16.5556 20.3333H17.6667V19.1545M17.6667 9.25203V8.07317H16.5556M4 30H18C19.6569 30 21 28.6569 21 27V4C21 2.34315 19.6569 1 18 1H4C2.34315 1 1 2.34315 1 4V27C1 28.6569 2.34315 30 4 30Z" stroke="white" stroke-width="0.5"/>
<path d="M12.5 25.5203C12.5 26.3142 11.9004 26.9065 11.2222 26.9065C10.5439 26.9065 9.9444 26.3142 9.9444 25.5203C9.9444 24.7265 10.5439 24.1342 11.2222 24.1342C11.9004 24.1342 12.5 24.7265 12.5 25.5203Z" fill="black" stroke="white"/>
</svg>
