<svg width="29" height="29" viewBox="0 0 29 29" fill="none" xmlns="http://www.w3.org/2000/svg">
<path d="M13.0083 2C13.0083 2.73638 13.6053 3.33333 14.3417 3.33333C15.0781 3.33333 15.675 2.73638 15.675 2C15.675 1.26362 15.0781 0.666667 14.3417 0.666667C13.6053 0.666667 13.0083 1.26362 13.0083 2ZM13.0083 27C13.0083 27.7364 13.6053 28.3333 14.3417 28.3333C15.0781 28.3333 15.675 27.7364 15.675 27C15.675 26.2636 15.0781 25.6667 14.3417 25.6667C13.6053 25.6667 13.0083 26.2636 13.0083 27ZM14.0917 2V27H14.5917V2H14.0917Z" fill="white"/>
<path d="M3.9236 5.71132C4.43791 6.23833 5.28643 6.25314 5.81881 5.7444C6.3512 5.23566 6.36586 4.39601 5.85155 3.869C5.33724 3.34199 4.48872 3.32718 3.95633 3.83592C3.42394 4.34467 3.40929 5.18431 3.9236 5.71132ZM22.5706 24.8188C23.0849 25.3458 23.9334 25.3606 24.4658 24.8519C24.9982 24.3431 25.0128 23.5035 24.4985 22.9765C23.9842 22.4495 23.1357 22.4346 22.6033 22.9434C22.0709 23.4521 22.0563 24.2918 22.5706 24.8188ZM4.70683 4.96288L23.3538 24.0703L23.7153 23.7249L5.06832 4.61744L4.70683 4.96288Z" fill="white"/>
<path d="M2 15.8333C2.73638 15.8333 3.33333 15.2364 3.33333 14.5C3.33333 13.7636 2.73638 13.1667 2 13.1667C1.26362 13.1667 0.666667 13.7636 0.666667 14.5C0.666667 15.2364 1.26362 15.8333 2 15.8333ZM27 15.8333C27.7364 15.8333 28.3333 15.2364 28.3333 14.5C28.3333 13.7636 27.7364 13.1667 27 13.1667C26.2636 13.1667 25.6667 13.7636 25.6667 14.5C25.6667 15.2364 26.2636 15.8333 27 15.8333ZM2 14.75L27 14.75V14.25L2 14.25L2 14.75Z" fill="white"/>
<path d="M5.70105 24.7499C6.22448 24.232 6.22448 23.3922 5.70105 22.8742C5.17762 22.3563 4.32897 22.3563 3.80554 22.8742C3.28211 23.3922 3.28211 24.232 3.80554 24.7499C4.32897 25.2679 5.17762 25.2679 5.70105 24.7499ZM24.6822 5.96739C25.2056 5.44943 25.2056 4.60967 24.6822 4.09171C24.1588 3.57376 23.3101 3.57376 22.7867 4.09171C22.2633 4.60967 22.2633 5.44943 22.7867 5.96739C23.3101 6.48534 24.1588 6.48534 24.6822 5.96739ZM4.931 23.9879L23.9121 5.20539L23.5567 4.85371L4.57559 23.6362L4.931 23.9879Z" fill="white"/>
</svg>
