<svg width="19" height="28" viewBox="0 0 19 28" fill="none" xmlns="http://www.w3.org/2000/svg">
<path d="M1.97868 6.06947L0.562927 6.15924C0.374924 6.17116 0.276203 5.94029 0.414703 5.8126L5.14473 1.45172L12.0696 1.03571C12.261 1.02421 12.3574 1.26258 12.2117 1.38728L11.0811 2.35523M1.97868 6.06947L7.1236 5.74321L11.0811 2.35523M1.97868 6.06947L4.15534 10.7121M4.15534 10.7121C8.18994 10.326 10.1983 9.50632 13.2577 6.87241M4.15534 10.7121C1.68188 17.3901 7.71714 18.3914 7.71714 22.0052M13.2577 6.87241L11.0811 2.35523M13.2577 6.87241C24.141 12.9707 12.6641 19.5207 14.2471 22.0052M7.71714 22.0052L7.71714 24.1779C7.71714 24.7243 8.1601 25.1672 8.70653 25.1672V25.1672M7.71714 22.0052L11.0811 22.0052M14.2471 22.0052C14.2471 22.5859 14.2471 23.4865 14.2471 24.1783C14.2471 24.7247 13.8041 25.1672 13.2577 25.1672V25.1672M14.2471 22.0052L11.0811 22.0052M8.70653 25.1672L8.70653 26.2C8.70653 26.7523 9.15424 27.2 9.70653 27.2L12.2577 27.2C12.81 27.2 13.2577 26.7523 13.2577 26.2L13.2577 25.1672M8.70653 25.1672L13.2577 25.1672M11.0811 22.0052C11.0811 22.0052 10.8832 16.1328 11.4768 13.4224C12.0704 10.7121 15.0386 15.9069 9.69591 15.0034" stroke="white" stroke-width="0.5"/>
</svg>
