<svg width="27" height="22" viewBox="0 0 27 22" fill="none" xmlns="http://www.w3.org/2000/svg">
<path d="M14.695 6.34605C15.2117 6.9248 15.2212 7.85869 14.4966 8.13473C13.8874 8.36678 13.2234 8.36335 12.6165 8.12489C11.897 7.84226 11.9117 6.91299 12.429 6.33914C13.0351 5.66673 14.0917 5.67035 14.695 6.34605Z" fill="white"/>
<path d="M16.9362 3.82502C16.8392 3.93325 16.6474 3.94778 16.5106 3.82492C14.7579 2.24997 12.2494 2.23975 10.4845 3.80012C10.347 3.92167 10.1555 3.90547 10.0594 3.79648C9.97108 3.69616 9.98095 3.55924 10.0603 3.48303C12.0445 1.57763 14.9688 1.58983 16.9377 3.51132C17.0165 3.58828 17.0254 3.72539 16.9362 3.82502Z" fill="white" stroke="white" stroke-width="0.5"/>
<path d="M15.665 5.24462C15.5703 5.35043 15.3716 5.372 15.21 5.24809C14.1798 4.45816 12.81 4.45265 11.7737 5.23407C11.6114 5.35646 11.4131 5.33317 11.3192 5.22661C11.2287 5.12389 11.2441 4.99208 11.3188 4.92547C12.5946 3.78764 14.4011 3.79517 15.6677 4.94325C15.742 5.01055 15.7564 5.14259 15.665 5.24462Z" fill="white" stroke="white" stroke-width="0.5"/>
<path d="M6.76549 1L8.3608 5.78052L12.1671 9.51241M12.1671 9.51241L6.45763 8.92641L2.34342 2.85052M12.1671 9.51241L7.96897 11.9798L5.08622 20.6772M12.1671 9.51241L4.52647 11.9798L1 21.6025" stroke="white" stroke-width="0.5" stroke-linecap="round" stroke-linejoin="round"/>
<path d="M20.2717 1L18.6867 5.78052L14.9049 9.51241M14.9049 9.51241L20.5776 8.92641L24.6653 2.85052M14.9049 9.51241L19.076 11.9798L21.9401 20.6772M14.9049 9.51241L22.4963 11.9798L26 21.6025" stroke="white" stroke-width="0.5" stroke-linecap="round" stroke-linejoin="round"/>
</svg>
