<svg width="25" height="25" viewBox="0 0 25 25" fill="none" xmlns="http://www.w3.org/2000/svg">
<line y1="-0.25" x2="23.4446" y2="-0.25" transform="matrix(0.953306 0.302006 -0.311667 0.950191 1.20947 4.3587)" stroke="white" stroke-width="0.5"/>
<line y1="-0.25" x2="24.8971" y2="-0.25" transform="matrix(-0.869758 0.493479 -0.584483 -0.811406 23.5596 10.5938)" stroke="white" stroke-width="0.5"/>
<line y1="-0.25" x2="19.4343" y2="-0.25" transform="matrix(-0.031383 -0.999507 0.999541 -0.0303119 2.22266 23.3871)" stroke="white" stroke-width="0.5"/>
<line y1="-0.25" x2="28.1867" y2="-0.25" transform="matrix(0.57879 -0.815477 0.824808 0.565413 2.41919 23.3784)" stroke="white" stroke-width="0.5"/>
<line y1="-0.25" x2="9.35" y2="-0.25" transform="matrix(0.400712 -0.916204 0.945471 0.325705 19.813 20.0056)" stroke="white" stroke-width="0.5"/>
<path d="M3.78998 23.2072C3.78998 24.0321 3.02641 24.75 2.01999 24.75C1.01357 24.75 0.25 24.0321 0.25 23.2072C0.25 22.3824 1.01357 21.6645 2.01999 21.6645C3.02641 21.6645 3.78998 22.3824 3.78998 23.2072Z" fill="black" stroke="white" stroke-width="0.5"/>
<path d="M24.75 10.6975C24.75 11.3366 24.1561 11.9039 23.359 11.9039C22.5619 11.9039 21.968 11.3366 21.968 10.6975C21.968 10.0585 22.5619 9.49115 23.359 9.49115C24.1561 9.49115 24.75 10.0585 24.75 10.6975Z" fill="black" stroke="white" stroke-width="0.5"/>
<path d="M2.8064 4.4981C2.8064 4.94664 2.39262 5.32997 1.8564 5.32997C1.32017 5.32997 0.906396 4.94664 0.906396 4.4981C0.906396 4.04955 1.32017 3.66622 1.8564 3.66622C2.39262 3.66622 2.8064 4.04955 2.8064 4.4981Z" fill="black" stroke="white" stroke-width="0.2"/>
<path d="M19.21 1.02506C19.21 1.52507 18.7492 1.95012 18.155 1.95012C17.5608 1.95012 17.1 1.52507 17.1 1.02506C17.1 0.525049 17.5608 0.1 18.155 0.1C18.7492 0.1 19.21 0.525049 19.21 1.02506Z" fill="black" stroke="white" stroke-width="0.2"/>
<path d="M20.1603 19.9974C20.1603 20.2525 19.9233 20.4789 19.6051 20.4789C19.287 20.4789 19.05 20.2525 19.05 19.9974C19.05 19.7424 19.287 19.516 19.6051 19.516C19.9233 19.516 20.1603 19.7424 20.1603 19.9974Z" fill="black" stroke="white" stroke-width="0.2"/>
</svg>
