<svg xmlns="http://www.w3.org/2000/svg" width="71" height="88" viewBox="0 0 71 88" fill="none">
  <path d="M3 82.5C1.61929 82.5 0.5 83.6193 0.5 85C0.5 86.3807 1.61929 87.5 3 87.5V82.5ZM46.2343 0.511008C44.8597 0.381583 43.6404 1.39102 43.511 2.76566L41.4019 25.1666C41.2725 26.5412 42.2819 27.7605 43.6566 27.8899C45.0312 28.0193 46.2505 27.0099 46.3799 25.6353L48.2546 5.72334L68.1666 7.59809C69.5412 7.72751 70.7605 6.71807 70.8899 5.34344C71.0193 3.96881 70.0099 2.74953 68.6353 2.62011L46.2343 0.511008ZM3 87.5C20.2529 87.5 32.9539 83.5168 41.9572 76.9804C50.9786 70.4308 56.065 61.4781 58.3578 51.9724C60.6425 42.5007 60.1636 32.4633 58.0876 23.5546C56.0168 14.668 52.308 6.69903 47.9257 1.40572L44.0743 4.59428C47.8454 9.14924 51.2758 16.3544 53.2181 24.6894C55.1552 33.0022 55.5634 42.2338 53.4972 50.8C51.4392 59.3323 46.9368 67.1864 39.0197 72.9343C31.0844 78.6953 19.4971 82.5 3 82.5V87.5Z" fill="white"/>
</svg>