<svg width="30" height="30" viewBox="0 0 30 30" fill="none" xmlns="http://www.w3.org/2000/svg">
<g id="brand / facebook">
<path id="coolicon" d="M2.5025 15.0027C2.50395 21.1519 6.9755 26.3877 13.0487 27.3514V18.6152H9.8775V15.0027H13.0525V12.2527C12.9106 10.9496 13.3557 9.65092 14.267 8.70884C15.1784 7.76677 16.4617 7.27894 17.7687 7.37768C18.7069 7.39283 19.6427 7.47638 20.5687 7.62768V10.7014H18.9887C18.4448 10.6302 17.8979 10.8098 17.5022 11.1898C17.1065 11.5697 16.9047 12.1088 16.9537 12.6552V15.0027H20.4175L19.8637 18.6164H16.9537V27.3514C23.5218 26.3134 28.1276 20.3149 27.4344 13.7015C26.7412 7.08814 20.9916 2.17509 14.351 2.52165C7.71045 2.86821 2.50355 8.35306 2.5025 15.0027Z" fill="white"/>
</g>
</svg>
