<svg width="30" height="30" viewBox="0 0 20 20" fill="none" xmlns="http://www.w3.org/2000/svg">
<g id="brand / github">
<path id="coolicon" d="M10.0214 1.66675C5.9438 1.66622 2.46787 4.6234 1.81502 8.64836C1.16217 12.6733 3.52518 16.5776 7.39385 17.8659C7.81052 17.9409 7.95969 17.6851 7.95969 17.4651C7.95969 17.2676 7.95302 16.7442 7.95052 16.0484C5.63802 16.5484 5.14969 14.9334 5.14969 14.9334C4.99745 14.4309 4.67017 13.9995 4.22719 13.7176C3.47719 13.2017 4.28469 13.2134 4.28469 13.2134C4.81859 13.2866 5.28848 13.603 5.55719 14.0701C5.78463 14.4836 6.16782 14.7892 6.62161 14.9189C7.0754 15.0487 7.5622 14.9918 7.97385 14.7609C8.01254 14.3393 8.20014 13.9451 8.50302 13.6492C6.65802 13.4401 4.71802 12.7267 4.71802 9.54092C4.70778 8.71691 5.01377 7.92033 5.57302 7.31508C5.31998 6.59784 5.34978 5.81113 5.65635 5.11508C5.65635 5.11508 6.35385 4.89091 7.94135 5.96591C9.30289 5.59259 10.7398 5.59259 12.1014 5.96591C13.6897 4.89008 14.3864 5.11508 14.3864 5.11508C14.6944 5.8108 14.7242 6.59806 14.4697 7.31508C15.031 7.92027 15.3367 8.71895 15.323 9.54425C15.323 12.7384 13.3814 13.4401 11.5297 13.6459C11.9291 14.0543 12.134 14.6145 12.0922 15.1842C12.0922 16.2959 12.0822 17.1926 12.0822 17.4651C12.0822 17.6876 12.2305 17.9459 12.6547 17.8642C16.5217 16.5737 18.8822 12.6692 18.228 8.64534C17.5738 4.62146 14.0981 1.66582 10.0214 1.66675Z" fill="white"/>
</g>
</svg>
