<svg width="30" height="30" viewBox="0 0 30 30" fill="none" xmlns="http://www.w3.org/2000/svg">
<g id="brand / instagram">
<path id="coolicon" d="M15.0025 26.3013C11.9275 26.3013 11.565 26.2851 10.365 26.2326C9.42922 26.2018 8.50554 26.0116 7.63375 25.6701C6.12539 25.0831 4.93268 23.8899 4.34625 22.3813C4.01789 21.5064 3.84077 20.582 3.8225 19.6476C3.7525 18.4501 3.7525 18.0576 3.7525 15.0063C3.7525 11.9226 3.76875 11.5626 3.8225 10.3688C3.84117 9.43575 4.01828 8.51261 4.34625 7.63885C4.93204 6.12826 6.12669 4.93406 7.6375 4.34885C8.51081 4.0191 9.43419 3.84153 10.3675 3.82385C11.5613 3.75635 11.9538 3.75635 15.0025 3.75635C18.1025 3.75635 18.4588 3.7726 19.64 3.82385C20.5757 3.84168 21.5016 4.01923 22.3775 4.34885C23.8879 4.93473 25.0823 6.12869 25.6688 7.63885C26.0027 8.52534 26.1807 9.46291 26.195 10.4101C26.265 11.6076 26.265 11.9988 26.265 15.0488C26.265 18.0988 26.2475 18.4988 26.195 19.6826C26.1764 20.6178 25.9989 21.5431 25.67 22.4188C25.0821 23.9285 23.8876 25.1221 22.3775 25.7088C21.5028 26.0366 20.5789 26.2137 19.645 26.2326C18.4513 26.3013 18.06 26.3013 15.0025 26.3013ZM14.96 5.7351C11.9025 5.7351 11.585 5.7501 10.3913 5.80385C9.67873 5.81329 8.9731 5.94477 8.305 6.1926C7.31844 6.57011 6.53779 7.34759 6.15625 8.3326C5.90652 9.00797 5.77501 9.72132 5.7675 10.4413C5.70125 11.6526 5.70125 11.9701 5.70125 15.0063C5.70125 18.0063 5.7125 18.3701 5.7675 19.5738C5.77869 20.2866 5.91012 20.9923 6.15625 21.6613C6.53835 22.6457 7.31887 23.4226 8.305 23.8001C8.97265 24.0496 9.67857 24.1811 10.3913 24.1888C11.6013 24.2588 11.92 24.2588 14.96 24.2588C18.0263 24.2588 18.3438 24.2438 19.5275 24.1888C20.2405 24.1802 20.9467 24.0487 21.615 23.8001C22.5956 23.4193 23.3712 22.6442 23.7525 21.6638C24.0018 20.9879 24.1332 20.2742 24.1413 19.5538H24.155C24.2087 18.3588 24.2088 18.0401 24.2088 14.9863C24.2088 11.9326 24.195 11.6113 24.1413 10.4176C24.13 9.70566 23.9986 9.00074 23.7525 8.3326C23.372 7.35081 22.5963 6.57421 21.615 6.1926C20.9468 5.94352 20.2406 5.812 19.5275 5.80385C18.3188 5.7351 18.0025 5.7351 14.96 5.7351ZM15.0025 20.7801C12.665 20.7816 10.5568 19.3748 9.66108 17.2157C8.76539 15.0566 9.25864 12.5705 10.9108 10.9169C12.5629 9.26334 15.0486 8.76794 17.2085 9.66176C19.3683 10.5556 20.777 12.6626 20.7775 15.0001C20.7741 18.1889 18.1913 20.7739 15.0025 20.7801ZM15.0025 11.2476C12.9314 11.2476 11.2525 12.9265 11.2525 14.9976C11.2525 17.0687 12.9314 18.7476 15.0025 18.7476C17.0736 18.7476 18.7525 17.0687 18.7525 14.9976C18.7477 12.9285 17.0716 11.2524 15.0025 11.2476ZM21.0025 10.3564C20.2593 10.3536 19.6586 9.74958 19.66 9.00636C19.6614 8.26313 20.2643 7.66136 21.0075 7.66136C21.7507 7.66136 22.3536 8.26312 22.355 9.00635C22.3553 9.36493 22.2129 9.70888 21.9591 9.96219C21.7053 10.2155 21.3611 10.3573 21.0025 10.3564Z" fill="white"/>
</g>
</svg>
