<svg width="30" height="30" viewBox="0 0 30 30" fill="none" xmlns="http://www.w3.org/2000/svg">
<path d="M16.25 26.25H11.25V11.25H16.25V13.75C17.3158 12.3941 18.932 11.5857 20.6562 11.5462C23.757 11.5635 26.259 14.0867 26.25 17.1875V26.25H21.25V17.8125C21.05 16.4158 19.8522 15.3795 18.4412 15.3825C17.8241 15.402 17.2416 15.6722 16.828 16.1308C16.4145 16.5893 16.2058 17.1966 16.25 17.8125V26.25ZM8.75 26.25H3.75V11.25H8.75V26.25ZM6.25 8.75C4.86929 8.75 3.75 7.63071 3.75 6.25C3.75 4.86929 4.86929 3.75 6.25 3.75C7.63071 3.75 8.75 4.86929 8.75 6.25C8.75 6.91304 8.48661 7.54893 8.01777 8.01777C7.54893 8.48661 6.91304 8.75 6.25 8.75Z" fill="white"/>
</svg>
