<svg width="37" height="77" viewBox="0 0 37 77" fill="none" xmlns="http://www.w3.org/2000/svg">
<path d="M1.7 51.3428L-0.135446 50.5483L-0.135446 50.5483L1.7 51.3428ZM5.65 45.4928L7.06421 46.907L7.07135 46.8998L7.07842 46.8926L5.65 45.4928ZM11.45 41.5428L10.6556 39.7073H10.6556L11.45 41.5428ZM25.75 41.5428L26.5444 39.7073L25.75 41.5428ZM31.6 45.4928L33.0284 44.0929L33.0214 44.0857L33.0142 44.0786L31.6 45.4928ZM35.5 51.3428L37.3354 50.5483L35.5 51.3428ZM35.5 65.6428L37.3354 66.4372L35.5 65.6428ZM31.6 71.4928L32.9999 72.9212L33.0143 72.9071L33.0284 72.8926L31.6 71.4928ZM25.75 75.3928L26.5444 77.2282V77.2282L25.75 75.3928ZM11.45 75.3928L10.6556 77.2282V77.2282L11.45 75.3928ZM5.65 71.4928L4.23579 72.907L5.65 71.4928ZM27.75 54.6428L29.5962 53.8735L29.5871 53.8519L29.5776 53.8305L27.75 54.6428ZM22.45 49.3928L21.6377 51.2204L21.6591 51.2299L21.6808 51.2389L22.45 49.3928ZM14.75 49.3928L15.5192 51.2389L15.5409 51.2299L15.5623 51.2204L14.75 49.3928ZM11.6 51.4928L13.0142 52.907L13.0142 52.907L11.6 51.4928ZM9.5 54.6428L11.3276 55.455L11.3371 55.4336L11.3462 55.412L9.5 54.6428ZM9.5 62.3428L11.3462 61.5735L11.3371 61.5519L11.3276 61.5305L9.5 62.3428ZM11.6 65.4928L13.0142 64.0786L13.0142 64.0786L11.6 65.4928ZM14.75 67.6428L13.9377 69.4704L13.9591 69.4799L13.9808 69.4889L14.75 67.6428ZM22.45 67.6428L23.2192 69.4889L23.2409 69.4799L23.2623 69.4704L22.45 67.6428ZM25.6 65.4928L24.1858 64.0786L25.6 65.4928ZM27.75 62.3428L29.5776 63.155L29.5871 63.1336L29.5962 63.112L27.75 62.3428ZM2.25 58.4928C2.25 56.2213 2.68178 54.1095 3.53544 52.1372L-0.135446 50.5483C-1.21512 53.0427 -1.75 55.6976 -1.75 58.4928H2.25ZM3.53544 52.1372C4.40531 50.1275 5.58155 48.3896 7.06421 46.907L4.23578 44.0786C2.38511 45.9292 0.928016 48.0914 -0.135446 50.5483L3.53544 52.1372ZM7.07842 46.8926C8.52287 45.4187 10.2383 44.2466 12.2444 43.3782L10.6556 39.7073C8.19506 40.7723 6.04379 42.2335 4.22157 44.0929L7.07842 46.8926ZM12.2444 43.3782C14.2167 42.5246 16.3285 42.0928 18.6 42.0928V38.0928C15.8048 38.0928 13.15 38.6277 10.6556 39.7073L12.2444 43.3782ZM18.6 42.0928C20.8715 42.0928 22.9833 42.5246 24.9556 43.3782L26.5444 39.7073C24.05 38.6277 21.3952 38.0928 18.6 38.0928V42.0928ZM24.9556 43.3782C26.9653 44.2481 28.7031 45.4243 30.1858 46.907L33.0142 44.0786C31.1635 42.2279 29.0014 40.7708 26.5444 39.7073L24.9556 43.3782ZM30.1716 46.8926C31.626 48.3767 32.7911 50.1192 33.6646 52.1372L37.3354 50.5483C36.2756 48.0997 34.8407 45.9422 33.0284 44.0929L30.1716 46.8926ZM33.6646 52.1372C34.5182 54.1095 34.95 56.2213 34.95 58.4928H38.95C38.95 55.6976 38.4151 53.0427 37.3354 50.5483L33.6646 52.1372ZM34.95 58.4928C34.95 60.7643 34.5182 62.8761 33.6646 64.8483L37.3354 66.4372C38.4151 63.9428 38.95 61.2879 38.95 58.4928H34.95ZM33.6646 64.8483C32.7911 66.8664 31.626 68.6089 30.1716 70.0929L33.0284 72.8926C34.8407 71.0434 36.2756 68.8858 37.3354 66.4372L33.6646 64.8483ZM30.2001 70.0643C28.7161 71.5187 26.9736 72.6838 24.9556 73.5573L26.5444 77.2282C28.993 76.1684 31.1506 74.7335 32.9999 72.9212L30.2001 70.0643ZM24.9556 73.5573C22.9833 74.411 20.8715 74.8428 18.6 74.8428V78.8428C21.3952 78.8428 24.05 78.3079 26.5444 77.2282L24.9556 73.5573ZM18.6 74.8428C16.3285 74.8428 14.2167 74.411 12.2444 73.5573L10.6556 77.2282C13.15 78.3079 15.8048 78.8428 18.6 78.8428V74.8428ZM12.2444 73.5573C10.2298 72.6853 8.50992 71.5243 7.06421 70.0786L4.23579 72.907C6.05674 74.7279 8.20349 76.1669 10.6556 77.2282L12.2444 73.5573ZM7.06421 70.0786C5.58155 68.5959 4.40531 66.858 3.53544 64.8483L-0.135446 66.4372C0.928016 68.8942 2.38511 71.0563 4.23579 72.907L7.06421 70.0786ZM3.53544 64.8483C2.68178 62.8761 2.25 60.7643 2.25 58.4928H-1.75C-1.75 61.2879 -1.21512 63.9428 -0.135446 66.4372L3.53544 64.8483ZM30.5 58.4928C30.5 56.8758 30.2029 55.3297 29.5962 53.8735L25.9038 55.412C26.2971 56.3559 26.5 57.3764 26.5 58.4928L30.5 58.4928ZM29.5776 53.8305C28.9478 52.4134 28.0933 51.1577 27.0142 50.0786L24.1858 52.907C24.9067 53.6279 25.4855 54.4721 25.9224 55.455L29.5776 53.8305ZM27.0142 50.0786C25.9255 48.9898 24.6551 48.1449 23.2192 47.5466L21.6808 51.2389C22.6449 51.6406 23.4745 52.1957 24.1858 52.907L27.0142 50.0786ZM23.2623 47.5651C21.7961 46.9135 20.2348 46.5928 18.6 46.5928L18.6 50.5928C19.6985 50.5928 20.7039 50.8054 21.6377 51.2204L23.2623 47.5651ZM18.6 46.5928C16.9652 46.5928 15.4039 46.9135 13.9377 47.5651L15.5623 51.2204C16.4961 50.8054 17.5015 50.5928 18.6 50.5928L18.6 46.5928ZM13.9808 47.5466C12.5449 48.1449 11.2745 48.9898 10.1858 50.0786L13.0142 52.907C13.7255 52.1957 14.5551 51.6406 15.5192 51.2389L13.9808 47.5466ZM10.1858 50.0786C9.09706 51.1673 8.25212 52.4377 7.65385 53.8735L11.3462 55.412C11.7479 54.4479 12.3029 53.6183 13.0142 52.907L10.1858 50.0786ZM7.67238 53.8305C7.02075 55.2967 6.7 56.8579 6.7 58.4928H10.7C10.7 57.3943 10.9126 56.3889 11.3276 55.455L7.67238 53.8305ZM6.7 58.4928C6.7 60.1276 7.02075 61.6889 7.67238 63.1551L11.3276 61.5305C10.9126 60.5967 10.7 59.5913 10.7 58.4928H6.7ZM7.65384 63.112C8.25212 64.5479 9.09706 65.8183 10.1858 66.907L13.0142 64.0786C12.3029 63.3673 11.7479 62.5377 11.3462 61.5735L7.65384 63.112ZM10.1858 66.907C11.2649 67.9861 12.5206 68.8406 13.9377 69.4704L15.5623 65.8151C14.5793 65.3783 13.7351 64.7995 13.0142 64.0786L10.1858 66.907ZM13.9808 69.4889C15.4369 70.0956 16.983 70.3928 18.6 70.3928L18.6 66.3928C17.4836 66.3928 16.4631 66.1899 15.5192 65.7966L13.9808 69.4889ZM18.6 70.3928C20.2169 70.3928 21.7631 70.0956 23.2192 69.4889L21.6808 65.7966C20.7369 66.1899 19.7164 66.3928 18.6 66.3928L18.6 70.3928ZM23.2623 69.4704C24.6793 68.8406 25.9351 67.9861 27.0142 66.907L24.1858 64.0786C23.4649 64.7995 22.6206 65.3783 21.6377 65.8151L23.2623 69.4704ZM27.0142 66.907C28.0933 65.8279 28.9478 64.5721 29.5776 63.155L25.9224 61.5305C25.4855 62.5134 24.9067 63.3577 24.1858 64.0786L27.0142 66.907ZM29.5962 63.112C30.2029 61.6559 30.5 60.1097 30.5 58.4928L26.5 58.4928C26.5 59.6092 26.2971 60.6297 25.9038 61.5735L29.5962 63.112ZM13.75 19.9752L12.3249 21.3785L14.315 23.3994L15.5503 20.8463L13.75 19.9752ZM15.65 17.1752L17.1219 18.5293L17.15 18.4988L17.1768 18.4671L15.65 17.1752ZM18.2 14.9752L19.2547 16.6745L19.2893 16.653L19.323 16.6301L18.2 14.9752ZM21.25 13.5252L20.67 11.6111L21.25 13.5252ZM29.5 14.0252L28.6877 15.8528L28.7048 15.8604L28.7221 15.8677L29.5 14.0252ZM33.4 16.6252L31.9858 18.0394L33.4 16.6252ZM36.05 20.5252L37.8861 19.7323L37.8819 19.7226L37.8776 19.7129L36.05 20.5252ZM36.05 30.0752L37.8776 30.8875L37.8852 30.8704L37.8925 30.8531L36.05 30.0752ZM33.4 33.9752L31.9858 32.561L33.4 33.9752ZM29.5 36.6252L30.2779 38.4677L30.2952 38.4604L30.3123 38.4528L29.5 36.6252ZM24.7 37.5752H22.7V39.5752H24.7V37.5752ZM24.7 29.1252V27.1252H22.7V29.1252H24.7ZM27.45 28.0252L28.8324 29.4705L28.8646 29.4398L28.8953 29.4076L27.45 28.0252ZM27.45 22.5752L28.8642 21.161L28.8485 21.1453L28.8324 21.1299L27.45 22.5752ZM22.1 22.5752L23.5142 23.9894L23.5307 23.973L23.5467 23.9561L22.1 22.5752ZM21 30.8252V32.8252H23V30.8252H21ZM12.6 30.8252L11.177 32.2306L11.7643 32.8252H12.6L12.6 30.8252ZM8.6 26.7752L10.023 25.3698L6.6 21.904L6.6 26.7752H8.6ZM8.6 36.7252V38.7252H10.6V36.7252H8.6ZM0.149998 36.7252H-1.85L-1.85 38.7252H0.149998L0.149998 36.7252ZM0.149998 13.4252L0.149998 11.4252H-1.85L-1.85 13.4252H0.149998ZM7.3 13.4252L8.72505 12.0219L8.13745 11.4252H7.3L7.3 13.4252ZM15.5503 20.8463C15.9662 19.9867 16.4896 19.2166 17.1219 18.5293L14.1781 15.8211C13.2771 16.8005 12.5338 17.897 11.9497 19.1041L15.5503 20.8463ZM17.1768 18.4671C17.7747 17.7604 18.4653 17.1644 19.2547 16.6745L17.1453 13.2759C16.0013 13.986 14.9919 14.8567 14.1232 15.8833L17.1768 18.4671ZM19.323 16.6301C20.0863 16.1122 20.9193 15.7152 21.83 15.4392L20.67 11.6111C19.3807 12.0018 18.1804 12.5715 17.077 13.3202L19.323 16.6301ZM21.83 15.4392C22.7338 15.1654 23.6878 15.0252 24.7 15.0252V11.0252C23.3122 11.0252 21.9662 11.2184 20.67 11.6111L21.83 15.4392ZM24.7 15.0252C26.1304 15.0252 27.4526 15.3039 28.6877 15.8528L30.3123 12.1976C28.5474 11.4132 26.6696 11.0252 24.7 11.0252V15.0252ZM28.7221 15.8677C29.9956 16.4054 31.0767 17.1303 31.9858 18.0394L34.8142 15.211C33.5233 13.92 32.0044 12.9116 30.2779 12.1827L28.7221 15.8677ZM31.9858 18.0394C32.9028 18.9564 33.6498 20.0493 34.2224 21.3375L37.8776 19.7129C37.1168 18.0011 36.0972 16.494 34.8142 15.211L31.9858 18.0394ZM34.2139 21.3181C34.7323 22.5186 35 23.8301 35 25.2752H39C39 23.3203 38.6344 21.4651 37.8861 19.7323L34.2139 21.3181ZM35 25.2752C35 26.72 34.7323 28.0543 34.2075 29.2973L37.8925 30.8531C38.6343 29.0961 39 27.2304 39 25.2752H35ZM34.2224 29.2629C33.6498 30.5511 32.9028 31.644 31.9858 32.561L34.8142 35.3894C36.0972 34.1064 37.1168 32.5993 37.8776 30.8875L34.2224 29.2629ZM31.9858 32.561C31.0688 33.478 29.9759 34.225 28.6877 34.7976L30.3123 38.4528C32.0241 37.692 33.5312 36.6724 34.8142 35.3894L31.9858 32.561ZM28.7221 34.7827C27.4791 35.3075 26.1448 35.5752 24.7 35.5752V39.5752C26.6552 39.5752 28.5209 39.2095 30.2779 38.4677L28.7221 34.7827ZM26.7 37.5752V29.1252H22.7V37.5752H26.7ZM24.7 31.1252C26.2786 31.1252 27.6913 30.562 28.8324 29.4705L26.0676 26.5799C25.6753 26.9551 25.2547 27.1252 24.7 27.1252V31.1252ZM28.8953 29.4076C29.9868 28.2665 30.55 26.8538 30.55 25.2752H26.55C26.55 25.8299 26.3799 26.2505 26.0047 26.6427L28.8953 29.4076ZM30.55 25.2752C30.55 23.695 29.9844 22.2812 28.8642 21.161L26.0358 23.9894C26.3822 24.3359 26.55 24.722 26.55 25.2752H30.55ZM28.8324 21.1299C27.6913 20.0384 26.2786 19.4752 24.7 19.4752V23.4752C25.2547 23.4752 25.6753 23.6453 26.0676 24.0205L28.8324 21.1299ZM24.7 19.4752C23.132 19.4752 21.7388 20.057 20.6533 21.1942L23.5467 23.9561C23.8612 23.6267 24.2013 23.4752 24.7 23.4752V19.4752ZM20.6858 21.161C19.5656 22.2812 19 23.695 19 25.2752L23 25.2752C23 24.722 23.1678 24.3359 23.5142 23.9894L20.6858 21.161ZM19 25.2752L19 30.8252L23 30.8252L23 25.2752L19 25.2752ZM21 28.8252L12.6 28.8252L12.6 32.8252L21 32.8252V28.8252ZM14.023 29.4198L10.023 25.3698L7.17703 28.1806L11.177 32.2306L14.023 29.4198ZM6.6 26.7752L6.6 36.7252H10.6L10.6 26.7752H6.6ZM8.6 34.7252H0.149998L0.149998 38.7252H8.6V34.7252ZM2.15 36.7252L2.15 13.4252H-1.85L-1.85 36.7252H2.15ZM0.149998 15.4252H7.3L7.3 11.4252H0.149998L0.149998 15.4252ZM5.87495 14.8285L12.3249 21.3785L15.175 18.5719L8.72505 12.0219L5.87495 14.8285ZM35.75 1.78418L37.1642 0.369965L35.75 1.78418ZM35.75 7.93418L37.1362 9.37585L37.1645 9.34866L37.1917 9.3204L35.75 7.93418ZM29.6 7.93418L31.0142 6.51997L29.6 7.93418ZM29.6 1.78418L30.9862 3.22585L31.0145 3.19866L31.0417 3.17039L29.6 1.78418ZM32.65 2.48418C33.307 2.48418 33.8352 2.69781 34.3358 3.19839L37.1642 0.369965C35.9315 -0.862785 34.393 -1.51582 32.65 -1.51582V2.48418ZM34.3358 3.19839C34.7864 3.64905 35 4.15376 35 4.83418H39C39 3.11459 38.3802 1.58598 37.1642 0.369965L34.3358 3.19839ZM35 4.83418C35 5.5162 34.7842 6.05306 34.3083 6.54797L37.1917 9.3204C38.3825 8.08196 39 6.55215 39 4.83418H35ZM34.3638 6.49252C33.8689 6.96838 33.332 7.18418 32.65 7.18418V11.1842C34.368 11.1842 35.8978 10.5666 37.1362 9.37585L34.3638 6.49252ZM32.65 7.18418C31.9696 7.18418 31.4649 6.97063 31.0142 6.51997L28.1858 9.3484C29.4018 10.5644 30.9304 11.1842 32.65 11.1842V7.18418ZM31.0142 6.51997C30.5136 6.01939 30.3 5.49117 30.3 4.83418H26.3C26.3 6.57719 26.953 8.11564 28.1858 9.3484L31.0142 6.51997ZM30.3 4.83418C30.3 4.1794 30.5109 3.68293 30.9862 3.22585L28.2138 0.342514C26.9558 1.55209 26.3 3.08896 26.3 4.83418H30.3ZM31.0417 3.17039C31.4987 2.69503 31.9952 2.48418 32.65 2.48418V-1.51582C30.9048 -1.51582 29.3679 -0.860008 28.1583 0.397964L31.0417 3.17039Z" fill="white"/>
</svg>
