<svg width="37" height="70" viewBox="0 0 37 70" fill="none" xmlns="http://www.w3.org/2000/svg">
<path d="M1.7 44.3271L-0.135446 43.5327L-0.135446 43.5327L1.7 44.3271ZM5.65 38.4771L7.06421 39.8914L7.07135 39.8842L7.07842 39.877L5.65 38.4771ZM11.45 34.5271L10.6556 32.6917H10.6556L11.45 34.5271ZM25.75 34.5271L26.5444 32.6917L25.75 34.5271ZM31.6 38.4771L33.0284 37.0773L33.0214 37.0701L33.0142 37.0629L31.6 38.4771ZM35.5 44.3271L37.3354 43.5327L35.5 44.3271ZM35.5 58.6271L37.3354 59.4216L35.5 58.6271ZM31.6 64.4771L32.9999 65.9056L33.0143 65.8914L33.0284 65.877L31.6 64.4771ZM25.75 68.3771L26.5444 70.2126V70.2126L25.75 68.3771ZM11.45 68.3771L10.6556 70.2126V70.2126L11.45 68.3771ZM5.65 64.4771L4.23579 65.8914L5.65 64.4771ZM27.75 47.6271L29.5962 46.8579L29.5871 46.8363L29.5776 46.8149L27.75 47.6271ZM22.45 42.3771L21.6377 44.2048L21.6591 44.2143L21.6808 44.2233L22.45 42.3771ZM14.75 42.3771L15.5192 44.2233L15.5409 44.2143L15.5623 44.2048L14.75 42.3771ZM11.6 44.4771L13.0142 45.8914L13.0142 45.8914L11.6 44.4771ZM9.5 47.6271L11.3276 48.4394L11.3371 48.418L11.3462 48.3964L9.5 47.6271ZM9.5 55.3271L11.3462 54.5579L11.3371 54.5363L11.3276 54.5149L9.5 55.3271ZM11.6 58.4771L13.0142 57.0629L13.0142 57.0629L11.6 58.4771ZM14.75 60.6271L13.9377 62.4548L13.9591 62.4643L13.9808 62.4733L14.75 60.6271ZM22.45 60.6271L23.2192 62.4733L23.2409 62.4643L23.2623 62.4548L22.45 60.6271ZM25.6 58.4771L24.1858 57.0629L25.6 58.4771ZM27.75 55.3271L29.5776 56.1394L29.5871 56.118L29.5962 56.0964L27.75 55.3271ZM2.25 51.4771C2.25 49.2056 2.68178 47.0938 3.53544 45.1216L-0.135446 43.5327C-1.21512 46.0271 -1.75 48.682 -1.75 51.4771H2.25ZM3.53544 45.1216C4.40531 43.1119 5.58155 41.374 7.06421 39.8914L4.23578 37.0629C2.38511 38.9136 0.928016 41.0757 -0.135446 43.5327L3.53544 45.1216ZM7.07842 39.877C8.52287 38.4031 10.2383 37.2309 12.2444 36.3626L10.6556 32.6917C8.19506 33.7567 6.04379 35.2179 4.22157 37.0773L7.07842 39.877ZM12.2444 36.3626C14.2167 35.5089 16.3285 35.0771 18.6 35.0771V31.0771C15.8048 31.0771 13.15 31.612 10.6556 32.6917L12.2444 36.3626ZM18.6 35.0771C20.8715 35.0771 22.9833 35.5089 24.9556 36.3626L26.5444 32.6917C24.05 31.612 21.3952 31.0771 18.6 31.0771V35.0771ZM24.9556 36.3626C26.9653 37.2325 28.7031 38.4087 30.1858 39.8914L33.0142 37.0629C31.1635 35.2123 29.0014 33.7552 26.5444 32.6917L24.9556 36.3626ZM30.1716 39.877C31.626 41.3611 32.7911 43.1035 33.6646 45.1216L37.3354 43.5327C36.2756 41.0841 34.8407 38.9266 33.0284 37.0773L30.1716 39.877ZM33.6646 45.1216C34.5182 47.0938 34.95 49.2056 34.95 51.4771H38.95C38.95 48.682 38.4151 46.0271 37.3354 43.5327L33.6646 45.1216ZM34.95 51.4771C34.95 53.7486 34.5182 55.8605 33.6646 57.8327L37.3354 59.4216C38.4151 56.9272 38.95 54.2723 38.95 51.4771H34.95ZM33.6646 57.8327C32.7911 59.8508 31.626 61.5932 30.1716 63.0773L33.0284 65.877C34.8407 64.0277 36.2756 61.8702 37.3354 59.4216L33.6646 57.8327ZM30.2001 63.0487C28.7161 64.5031 26.9736 65.6682 24.9556 66.5417L26.5444 70.2126C28.993 69.1528 31.1506 67.7179 32.9999 65.9056L30.2001 63.0487ZM24.9556 66.5417C22.9833 67.3954 20.8715 67.8271 18.6 67.8271V71.8271C21.3952 71.8271 24.05 71.2923 26.5444 70.2126L24.9556 66.5417ZM18.6 67.8271C16.3285 67.8271 14.2167 67.3954 12.2444 66.5417L10.6556 70.2126C13.15 71.2923 15.8048 71.8271 18.6 71.8271V67.8271ZM12.2444 66.5417C10.2298 65.6697 8.50992 64.5086 7.06421 63.0629L4.23579 65.8914C6.05674 67.7123 8.20349 69.1513 10.6556 70.2126L12.2444 66.5417ZM7.06421 63.0629C5.58155 61.5803 4.40531 59.8424 3.53544 57.8327L-0.135446 59.4216C0.928016 61.8786 2.38511 64.0407 4.23579 65.8914L7.06421 63.0629ZM3.53544 57.8327C2.68178 55.8605 2.25 53.7486 2.25 51.4771H-1.75C-1.75 54.2723 -1.21512 56.9272 -0.135446 59.4216L3.53544 57.8327ZM30.5 51.4771C30.5 49.8602 30.2029 48.3141 29.5962 46.8579L25.9038 48.3964C26.2971 49.3402 26.5 50.3608 26.5 51.4771L30.5 51.4771ZM29.5776 46.8149C28.9478 45.3978 28.0933 44.142 27.0142 43.0629L24.1858 45.8914C24.9067 46.6123 25.4855 47.4565 25.9224 48.4394L29.5776 46.8149ZM27.0142 43.0629C25.9255 41.9742 24.6551 41.1293 23.2192 40.531L21.6808 44.2233C22.6449 44.625 23.4745 45.1801 24.1858 45.8914L27.0142 43.0629ZM23.2623 40.5495C21.7961 39.8979 20.2348 39.5771 18.6 39.5771L18.6 43.5771C19.6985 43.5771 20.7039 43.7897 21.6377 44.2048L23.2623 40.5495ZM18.6 39.5771C16.9652 39.5771 15.4039 39.8979 13.9377 40.5495L15.5623 44.2048C16.4961 43.7897 17.5015 43.5771 18.6 43.5771L18.6 39.5771ZM13.9808 40.531C12.5449 41.1293 11.2745 41.9742 10.1858 43.0629L13.0142 45.8914C13.7255 45.1801 14.5551 44.625 15.5192 44.2233L13.9808 40.531ZM10.1858 43.0629C9.09706 44.1517 8.25212 45.4221 7.65385 46.8579L11.3462 48.3964C11.7479 47.4322 12.3029 46.6026 13.0142 45.8914L10.1858 43.0629ZM7.67238 46.8149C7.02075 48.281 6.7 49.8423 6.7 51.4771H10.7C10.7 50.3787 10.9126 49.3733 11.3276 48.4394L7.67238 46.8149ZM6.7 51.4771C6.7 53.112 7.02075 54.6733 7.67238 56.1394L11.3276 54.5149C10.9126 53.581 10.7 52.5756 10.7 51.4771H6.7ZM7.65384 56.0964C8.25212 57.5322 9.09706 58.8026 10.1858 59.8914L13.0142 57.0629C12.3029 56.3517 11.7479 55.5221 11.3462 54.5579L7.65384 56.0964ZM10.1858 59.8914C11.2649 60.9705 12.5206 61.825 13.9377 62.4548L15.5623 58.7995C14.5793 58.3627 13.7351 57.7838 13.0142 57.0629L10.1858 59.8914ZM13.9808 62.4733C15.4369 63.08 16.983 63.3771 18.6 63.3771L18.6 59.3771C17.4836 59.3771 16.4631 59.1743 15.5192 58.781L13.9808 62.4733ZM18.6 63.3771C20.2169 63.3771 21.7631 63.08 23.2192 62.4733L21.6808 58.781C20.7369 59.1743 19.7164 59.3771 18.6 59.3771L18.6 63.3771ZM23.2623 62.4548C24.6793 61.825 25.9351 60.9705 27.0142 59.8914L24.1858 57.0629C23.4649 57.7838 22.6206 58.3627 21.6377 58.7995L23.2623 62.4548ZM27.0142 59.8914C28.0933 58.8123 28.9478 57.5565 29.5776 56.1394L25.9224 54.5149C25.4855 55.4978 24.9067 56.342 24.1858 57.0629L27.0142 59.8914ZM29.5962 56.0964C30.2029 54.6402 30.5 53.0941 30.5 51.4771L26.5 51.4771C26.5 52.5935 26.2971 53.6141 25.9038 54.5579L29.5962 56.0964ZM0.199997 21.5096H-1.8V22.4621L-1.0604 23.0624L0.199997 21.5096ZM0.199997 13.0596L0.199997 11.0596H-1.8L-1.8 13.0596H0.199997ZM37 13.0596H39V11.0596H37V13.0596ZM37 21.5096V23.5096H39V21.5096H37ZM13.6 21.5096V19.5096H7.93403L12.3445 23.0664L13.6 21.5096ZM16.7 24.0096L18.249 25.2748L19.5221 23.7161L17.9555 22.4527L16.7 24.0096ZM11.35 30.5596L10.0896 32.1124L11.6377 33.3689L12.899 31.8248L11.35 30.5596ZM2.2 21.5096L2.2 13.0596H-1.8L-1.8 21.5096H2.2ZM0.199997 15.0596L37 15.0596V11.0596L0.199997 11.0596L0.199997 15.0596ZM35 13.0596V21.5096H39V13.0596H35ZM37 19.5096L13.6 19.5096V23.5096L37 23.5096V19.5096ZM12.3445 23.0664L15.4445 25.5664L17.9555 22.4527L14.8555 19.9527L12.3445 23.0664ZM15.151 22.7444L9.80103 29.2944L12.899 31.8248L18.249 25.2748L15.151 22.7444ZM12.6104 29.0067L1.4604 19.9567L-1.0604 23.0624L10.0896 32.1124L12.6104 29.0067ZM35.75 1.7998L37.1642 0.38559L35.75 1.7998ZM35.75 7.94981L37.1362 9.39147L37.1645 9.36429L37.1917 9.33602L35.75 7.94981ZM29.6 7.94981L31.0142 6.53559L29.6 7.94981ZM29.6 1.7998L30.9862 3.24147L31.0145 3.21429L31.0417 3.18602L29.6 1.7998ZM32.65 2.4998C33.307 2.4998 33.8352 2.71344 34.3358 3.21402L37.1642 0.38559C35.9315 -0.84716 34.393 -1.5002 32.65 -1.5002V2.4998ZM34.3358 3.21402C34.7864 3.66467 35 4.16939 35 4.84981H39C39 3.13022 38.3802 1.6016 37.1642 0.38559L34.3358 3.21402ZM35 4.84981C35 5.53183 34.7842 6.06869 34.3083 6.56359L37.1917 9.33602C38.3825 8.09759 39 6.56778 39 4.84981H35ZM34.3638 6.50814C33.8689 6.984 33.332 7.19981 32.65 7.19981L32.65 11.1998C34.368 11.1998 35.8978 10.5823 37.1362 9.39147L34.3638 6.50814ZM32.65 7.19981C31.9696 7.19981 31.4649 6.98625 31.0142 6.53559L28.1858 9.36402C29.4018 10.58 30.9304 11.1998 32.65 11.1998L32.65 7.19981ZM31.0142 6.53559C30.5136 6.03501 30.3 5.5068 30.3 4.84981H26.3C26.3 6.59282 26.953 8.13127 28.1858 9.36402L31.0142 6.53559ZM30.3 4.84981C30.3 4.19502 30.5109 3.69855 30.9862 3.24147L28.2138 0.358139C26.9558 1.56772 26.3 3.10458 26.3 4.84981H30.3ZM31.0417 3.18602C31.4987 2.71066 31.9952 2.4998 32.65 2.4998V-1.5002C30.9048 -1.5002 29.3679 -0.844383 28.1583 0.413589L31.0417 3.18602Z" fill="white"/>
</svg>
