<svg width="45" height="84" viewBox="0 0 45 84" fill="none" xmlns="http://www.w3.org/2000/svg">
<g filter="url(#filter0_d_2396_214)">
<path d="M5.7 50.1836L3.86455 49.3891L3.86455 49.3891L5.7 50.1836ZM9.65 44.3336L11.0642 45.7478L11.0714 45.7407L11.0784 45.7334L9.65 44.3336ZM15.45 40.3836L14.6556 38.5481H14.6556L15.45 40.3836ZM29.75 40.3836L30.5444 38.5481L29.75 40.3836ZM35.6 44.3336L37.0284 42.9337L37.0214 42.9265L37.0142 42.9194L35.6 44.3336ZM39.5 50.1836L41.3354 49.3891L39.5 50.1836ZM39.5 64.4836L41.3354 65.278L39.5 64.4836ZM35.6 70.3336L36.9999 71.762L37.0143 71.7479L37.0284 71.7335L35.6 70.3336ZM29.75 74.2336L30.5444 76.069V76.069L29.75 74.2336ZM15.45 74.2336L14.6556 76.069V76.069L15.45 74.2336ZM9.65 70.3336L8.23579 71.7478L9.65 70.3336ZM31.75 53.4836L33.5962 52.7144L33.5871 52.6927L33.5776 52.6713L31.75 53.4836ZM26.45 48.2336L25.6377 50.0612L25.6591 50.0707L25.6808 50.0797L26.45 48.2336ZM18.75 48.2336L19.5192 50.0797L19.5409 50.0707L19.5623 50.0612L18.75 48.2336ZM15.6 50.3336L17.0142 51.7478L17.0142 51.7478L15.6 50.3336ZM13.5 53.4836L15.3276 54.2959L15.3371 54.2745L15.3462 54.2528L13.5 53.4836ZM13.5 61.1836L15.3462 60.4144L15.3371 60.3927L15.3276 60.3713L13.5 61.1836ZM15.6 64.3336L17.0142 62.9194L17.0142 62.9194L15.6 64.3336ZM18.75 66.4836L17.9377 68.3112L17.9591 68.3207L17.9808 68.3297L18.75 66.4836ZM26.45 66.4836L27.2192 68.3297L27.2409 68.3207L27.2623 68.3112L26.45 66.4836ZM29.6 64.3336L28.1858 62.9194L29.6 64.3336ZM31.75 61.1836L33.5776 61.9959L33.5871 61.9745L33.5962 61.9528L31.75 61.1836ZM6.25 57.3336C6.25 55.0621 6.68178 52.9503 7.53544 50.978L3.86455 49.3891C2.78488 51.8836 2.25 54.5384 2.25 57.3336H6.25ZM7.53544 50.978C8.40531 48.9683 9.58155 47.2305 11.0642 45.7478L8.23578 42.9194C6.38511 44.7701 4.92802 46.9322 3.86455 49.3891L7.53544 50.978ZM11.0784 45.7334C12.5229 44.2595 14.2383 43.0874 16.2444 42.219L14.6556 38.5481C12.1951 39.6131 10.0438 41.0743 8.22157 42.9337L11.0784 45.7334ZM16.2444 42.219C18.2167 41.3654 20.3285 40.9336 22.6 40.9336V36.9336C19.8048 36.9336 17.15 37.4685 14.6556 38.5481L16.2444 42.219ZM22.6 40.9336C24.8715 40.9336 26.9833 41.3654 28.9556 42.219L30.5444 38.5481C28.05 37.4685 25.3952 36.9336 22.6 36.9336V40.9336ZM28.9556 42.219C30.9653 43.0889 32.7031 44.2651 34.1858 45.7478L37.0142 42.9194C35.1635 41.0687 33.0014 39.6116 30.5444 38.5481L28.9556 42.219ZM34.1716 45.7334C35.626 47.2175 36.7911 48.96 37.6646 50.978L41.3354 49.3891C40.2756 46.9405 38.8407 44.783 37.0284 42.9337L34.1716 45.7334ZM37.6646 50.978C38.5182 52.9503 38.95 55.0621 38.95 57.3336H42.95C42.95 54.5384 42.4151 51.8836 41.3354 49.3891L37.6646 50.978ZM38.95 57.3336C38.95 59.6051 38.5182 61.7169 37.6646 63.6891L41.3354 65.278C42.4151 62.7836 42.95 60.1288 42.95 57.3336H38.95ZM37.6646 63.6891C36.7911 65.7072 35.626 67.4497 34.1716 68.9337L37.0284 71.7335C38.8407 69.8842 40.2756 67.7266 41.3354 65.278L37.6646 63.6891ZM34.2001 68.9052C32.7161 70.3596 30.9736 71.5247 28.9556 72.3981L30.5444 76.069C32.993 75.0092 35.1506 73.5743 36.9999 71.762L34.2001 68.9052ZM28.9556 72.3981C26.9833 73.2518 24.8715 73.6836 22.6 73.6836V77.6836C25.3952 77.6836 28.05 77.1487 30.5444 76.069L28.9556 72.3981ZM22.6 73.6836C20.3285 73.6836 18.2167 73.2518 16.2444 72.3981L14.6556 76.069C17.15 77.1487 19.8048 77.6836 22.6 77.6836V73.6836ZM16.2444 72.3981C14.2298 71.5262 12.5099 70.3651 11.0642 68.9194L8.23579 71.7478C10.0567 73.5688 12.2035 75.0077 14.6556 76.069L16.2444 72.3981ZM11.0642 68.9194C9.58155 67.4367 8.40531 65.6988 7.53544 63.6891L3.86455 65.278C4.92802 67.735 6.38511 69.8971 8.23579 71.7478L11.0642 68.9194ZM7.53544 63.6891C6.68178 61.7169 6.25 59.6051 6.25 57.3336H2.25C2.25 60.1288 2.78488 62.7836 3.86455 65.278L7.53544 63.6891ZM34.5 57.3336C34.5 55.7166 34.2029 54.1705 33.5962 52.7144L29.9038 54.2528C30.2971 55.1967 30.5 56.2172 30.5 57.3336L34.5 57.3336ZM33.5776 52.6713C32.9478 51.2542 32.0933 49.9985 31.0142 48.9194L28.1858 51.7478C28.9067 52.4687 29.4855 53.3129 29.9224 54.2959L33.5776 52.6713ZM31.0142 48.9194C29.9255 47.8307 28.6551 46.9857 27.2192 46.3874L25.6808 50.0797C26.6449 50.4815 27.4745 51.0365 28.1858 51.7478L31.0142 48.9194ZM27.2623 46.406C25.7961 45.7543 24.2348 45.4336 22.6 45.4336L22.6 49.4336C23.6985 49.4336 24.7039 49.6462 25.6377 50.0612L27.2623 46.406ZM22.6 45.4336C20.9652 45.4336 19.4039 45.7543 17.9377 46.406L19.5623 50.0612C20.4961 49.6462 21.5015 49.4336 22.6 49.4336L22.6 45.4336ZM17.9808 46.3874C16.5449 46.9857 15.2745 47.8307 14.1858 48.9194L17.0142 51.7478C17.7255 51.0365 18.5551 50.4815 19.5192 50.0797L17.9808 46.3874ZM14.1858 48.9194C13.0971 50.0081 12.2521 51.2785 11.6538 52.7144L15.3462 54.2528C15.7479 53.2887 16.3029 52.4591 17.0142 51.7478L14.1858 48.9194ZM11.6724 52.6713C11.0207 54.1375 10.7 55.6987 10.7 57.3336H14.7C14.7 56.2351 14.9126 55.2297 15.3276 54.2959L11.6724 52.6713ZM10.7 57.3336C10.7 58.9684 11.0207 60.5297 11.6724 61.9959L15.3276 60.3713C14.9126 59.4375 14.7 58.4321 14.7 57.3336H10.7ZM11.6538 61.9528C12.2521 63.3887 13.0971 64.6591 14.1858 65.7478L17.0142 62.9194C16.3029 62.2081 15.7479 61.3785 15.3462 60.4144L11.6538 61.9528ZM14.1858 65.7478C15.2649 66.8269 16.5206 67.6814 17.9377 68.3112L19.5623 64.656C18.5793 64.2191 17.7351 63.6403 17.0142 62.9194L14.1858 65.7478ZM17.9808 68.3297C19.4369 68.9365 20.983 69.2336 22.6 69.2336L22.6 65.2336C21.4836 65.2336 20.4631 65.0307 19.5192 64.6374L17.9808 68.3297ZM22.6 69.2336C24.2169 69.2336 25.7631 68.9365 27.2192 68.3297L25.6808 64.6374C24.7369 65.0307 23.7164 65.2336 22.6 65.2336L22.6 69.2336ZM27.2623 68.3112C28.6793 67.6814 29.9351 66.8269 31.0142 65.7478L28.1858 62.9194C27.4649 63.6403 26.6206 64.2191 25.6377 64.656L27.2623 68.3112ZM31.0142 65.7478C32.0933 64.6687 32.9478 63.4129 33.5776 61.9959L29.9224 60.3713C29.4855 61.3542 28.9067 62.1985 28.1858 62.9194L31.0142 65.7478ZM33.5962 61.9528C34.2029 60.4967 34.5 58.9505 34.5 57.3336L30.5 57.3336C30.5 58.45 30.2971 59.4705 29.9038 60.4144L33.5962 61.9528ZM4.2 21.666H2.2L2.2 22.729L3.08099 23.3237L4.2 21.666ZM4.2 13.216L4.2 11.216H2.2L2.2 13.216H4.2ZM41 13.216H43V11.216H41V13.216ZM41 21.666V23.666H43V21.666H41ZM34.5 21.666V19.666H32.5V21.666H34.5ZM34.5 36.416V38.416H36.5V36.416H34.5ZM26.05 36.416L24.931 38.0737L25.4381 38.416H26.05V36.416ZM26.05 26.216L24.9264 27.8706L28.05 29.9918V26.216H26.05ZM26.05 21.666H28.05V19.666H26.05V21.666ZM19.35 21.666V19.666H12.845L18.2264 23.3206L19.35 21.666ZM6.2 21.666L6.2 13.216H2.2L2.2 21.666H6.2ZM4.2 15.216L41 15.216V11.216H4.2L4.2 15.216ZM39 13.216L39 21.666H43L43 13.216H39ZM41 19.666H34.5V23.666H41V19.666ZM32.5 21.666L32.5 36.416H36.5V21.666H32.5ZM34.5 34.416H26.05V38.416H34.5V34.416ZM27.169 34.7584L5.31901 20.0084L3.08099 23.3237L24.931 38.0737L27.169 34.7584ZM28.05 26.216L28.05 21.666H24.05L24.05 26.216H28.05ZM26.05 19.666L19.35 19.666V23.666L26.05 23.666V19.666ZM18.2264 23.3206L24.9264 27.8706L27.1736 24.5615L20.4736 20.0115L18.2264 23.3206ZM39.75 1.94336L41.1642 0.529144L39.75 1.94336ZM39.75 8.09336L41.1362 9.53503L41.1645 9.50784L41.1917 9.47958L39.75 8.09336ZM33.6 8.09336L35.0142 6.67915L33.6 8.09336ZM33.6 1.94336L34.9862 3.38503L35.0145 3.35784L35.0417 3.32957L33.6 1.94336ZM36.65 2.64336C37.307 2.64336 37.8352 2.85699 38.3358 3.35757L41.1642 0.529144C39.9315 -0.703606 38.393 -1.35664 36.65 -1.35664V2.64336ZM38.3358 3.35757C38.7864 3.80823 39 4.31294 39 4.99336H43C43 3.27377 42.3802 1.74516 41.1642 0.529144L38.3358 3.35757ZM39 4.99336C39 5.67538 38.7842 6.21224 38.3083 6.70715L41.1917 9.47958C42.3825 8.24114 43 6.71133 43 4.99336H39ZM38.3638 6.6517C37.8689 7.12756 37.332 7.34336 36.65 7.34336V11.3434C38.368 11.3434 39.8978 10.7258 41.1362 9.53503L38.3638 6.6517ZM36.65 7.34336C35.9696 7.34336 35.4649 7.12981 35.0142 6.67915L32.1858 9.50758C33.4018 10.7236 34.9304 11.3434 36.65 11.3434V7.34336ZM35.0142 6.67915C34.5136 6.17857 34.3 5.65035 34.3 4.99336H30.3C30.3 6.73637 30.953 8.27482 32.1858 9.50758L35.0142 6.67915ZM34.3 4.99336C34.3 4.33858 34.5109 3.84211 34.9862 3.38503L32.2138 0.501694C30.9558 1.71127 30.3 3.24814 30.3 4.99336H34.3ZM35.0417 3.32957C35.4987 2.85421 35.9952 2.64336 36.65 2.64336V-1.35664C34.9048 -1.35664 33.3679 -0.700829 32.1583 0.557144L35.0417 3.32957Z" fill="white"/>
</g>
<defs>
<filter id="filter0_d_2396_214" x="0.200195" y="0.643311" width="44.7998" height="83.0403" filterUnits="userSpaceOnUse" color-interpolation-filters="sRGB">
<feFlood flood-opacity="0" result="BackgroundImageFix"/>
<feColorMatrix in="SourceAlpha" type="matrix" values="0 0 0 0 0 0 0 0 0 0 0 0 0 0 0 0 0 0 127 0" result="hardAlpha"/>
<feOffset dy="4"/>
<feGaussianBlur stdDeviation="2"/>
<feComposite in2="hardAlpha" operator="out"/>
<feColorMatrix type="matrix" values="0 0 0 0 0 0 0 0 0 0 0 0 0 0 0 0 0 0 0.25 0"/>
<feBlend mode="normal" in2="BackgroundImageFix" result="effect1_dropShadow_2396_214"/>
<feBlend mode="normal" in="SourceGraphic" in2="effect1_dropShadow_2396_214" result="shape"/>
</filter>
</defs>
</svg>
