<svg width="45" height="85" viewBox="0 0 45 85" fill="none" xmlns="http://www.w3.org/2000/svg">
<g filter="url(#filter0_d_2396_212)">
<path d="M5.7 51.3672L3.86455 50.5727L3.86455 50.5727L5.7 51.3672ZM9.65 45.5172L11.0642 46.9314L11.0714 46.9243L11.0784 46.917L9.65 45.5172ZM15.45 41.5672L14.6556 39.7317H14.6556L15.45 41.5672ZM29.75 41.5672L30.5444 39.7317L29.75 41.5672ZM35.6 45.5172L37.0284 44.1173L37.0214 44.1101L37.0142 44.103L35.6 45.5172ZM39.5 51.3672L41.3354 50.5727L39.5 51.3672ZM39.5 65.6672L41.3354 66.4616L39.5 65.6672ZM35.6 71.5172L36.9999 72.9456L37.0143 72.9315L37.0284 72.917L35.6 71.5172ZM29.75 75.4172L30.5444 77.2526V77.2526L29.75 75.4172ZM15.45 75.4172L14.6556 77.2526V77.2526L15.45 75.4172ZM9.65 71.5172L8.23579 72.9314L9.65 71.5172ZM31.75 54.6672L33.5962 53.898L33.5871 53.8763L33.5776 53.8549L31.75 54.6672ZM26.45 49.4172L25.6377 51.2448L25.6591 51.2543L25.6808 51.2633L26.45 49.4172ZM18.75 49.4172L19.5192 51.2633L19.5409 51.2543L19.5623 51.2448L18.75 49.4172ZM15.6 51.5172L17.0142 52.9314L17.0142 52.9314L15.6 51.5172ZM13.5 54.6672L15.3276 55.4795L15.3371 55.458L15.3462 55.4364L13.5 54.6672ZM13.5 62.3672L15.3462 61.598L15.3371 61.5763L15.3276 61.5549L13.5 62.3672ZM15.6 65.5172L17.0142 64.103L17.0142 64.103L15.6 65.5172ZM18.75 67.6672L17.9377 69.4948L17.9591 69.5043L17.9808 69.5133L18.75 67.6672ZM26.45 67.6672L27.2192 69.5133L27.2409 69.5043L27.2623 69.4948L26.45 67.6672ZM29.6 65.5172L28.1858 64.103L29.6 65.5172ZM31.75 62.3672L33.5776 63.1795L33.5871 63.158L33.5962 63.1364L31.75 62.3672ZM6.25 58.5172C6.25 56.2457 6.68178 54.1339 7.53544 52.1616L3.86455 50.5727C2.78488 53.0672 2.25 55.722 2.25 58.5172H6.25ZM7.53544 52.1616C8.40531 50.1519 9.58155 48.4141 11.0642 46.9314L8.23578 44.103C6.38511 45.9536 4.92802 48.1158 3.86455 50.5727L7.53544 52.1616ZM11.0784 46.917C12.5229 45.4431 14.2383 44.271 16.2444 43.4026L14.6556 39.7317C12.1951 40.7967 10.0438 42.2579 8.22157 44.1173L11.0784 46.917ZM16.2444 43.4026C18.2167 42.549 20.3285 42.1172 22.6 42.1172V38.1172C19.8048 38.1172 17.15 38.6521 14.6556 39.7317L16.2444 43.4026ZM22.6 42.1172C24.8715 42.1172 26.9833 42.549 28.9556 43.4026L30.5444 39.7317C28.05 38.6521 25.3952 38.1172 22.6 38.1172V42.1172ZM28.9556 43.4026C30.9653 44.2725 32.7031 45.4487 34.1858 46.9314L37.0142 44.103C35.1635 42.2523 33.0014 40.7952 30.5444 39.7317L28.9556 43.4026ZM34.1716 46.917C35.626 48.4011 36.7911 50.1436 37.6646 52.1616L41.3354 50.5727C40.2756 48.1241 38.8407 45.9666 37.0284 44.1173L34.1716 46.917ZM37.6646 52.1616C38.5182 54.1339 38.95 56.2457 38.95 58.5172H42.95C42.95 55.722 42.4151 53.0672 41.3354 50.5727L37.6646 52.1616ZM38.95 58.5172C38.95 60.7887 38.5182 62.9005 37.6646 64.8727L41.3354 66.4616C42.4151 63.9672 42.95 61.3124 42.95 58.5172H38.95ZM37.6646 64.8727C36.7911 66.8908 35.626 68.6333 34.1716 70.1173L37.0284 72.917C38.8407 71.0678 40.2756 68.9102 41.3354 66.4616L37.6646 64.8727ZM34.2001 70.0888C32.7161 71.5431 30.9736 72.7083 28.9556 73.5817L30.5444 77.2526C32.993 76.1928 35.1506 74.7579 36.9999 72.9456L34.2001 70.0888ZM28.9556 73.5817C26.9833 74.4354 24.8715 74.8672 22.6 74.8672V78.8672C25.3952 78.8672 28.05 78.3323 30.5444 77.2526L28.9556 73.5817ZM22.6 74.8672C20.3285 74.8672 18.2167 74.4354 16.2444 73.5817L14.6556 77.2526C17.15 78.3323 19.8048 78.8672 22.6 78.8672V74.8672ZM16.2444 73.5817C14.2298 72.7098 12.5099 71.5487 11.0642 70.103L8.23579 72.9314C10.0567 74.7524 12.2035 76.1913 14.6556 77.2526L16.2444 73.5817ZM11.0642 70.103C9.58155 68.6203 8.40531 66.8824 7.53544 64.8727L3.86455 66.4616C4.92802 68.9186 6.38511 71.0807 8.23579 72.9314L11.0642 70.103ZM7.53544 64.8727C6.68178 62.9005 6.25 60.7887 6.25 58.5172H2.25C2.25 61.3124 2.78488 63.9672 3.86455 66.4616L7.53544 64.8727ZM34.5 58.5172C34.5 56.9002 34.2029 55.3541 33.5962 53.898L29.9038 55.4364C30.2971 56.3803 30.5 57.4008 30.5 58.5172L34.5 58.5172ZM33.5776 53.8549C32.9478 52.4378 32.0933 51.1821 31.0142 50.103L28.1858 52.9314C28.9067 53.6523 29.4855 54.4965 29.9224 55.4795L33.5776 53.8549ZM31.0142 50.103C29.9255 49.0143 28.6551 48.1693 27.2192 47.571L25.6808 51.2633C26.6449 51.6651 27.4745 52.2201 28.1858 52.9314L31.0142 50.103ZM27.2623 47.5896C25.7961 46.9379 24.2348 46.6172 22.6 46.6172L22.6 50.6172C23.6985 50.6172 24.7039 50.8298 25.6377 51.2448L27.2623 47.5896ZM22.6 46.6172C20.9652 46.6172 19.4039 46.9379 17.9377 47.5896L19.5623 51.2448C20.4961 50.8298 21.5015 50.6172 22.6 50.6172L22.6 46.6172ZM17.9808 47.571C16.5449 48.1693 15.2745 49.0143 14.1858 50.103L17.0142 52.9314C17.7255 52.2201 18.5551 51.6651 19.5192 51.2633L17.9808 47.571ZM14.1858 50.103C13.0971 51.1917 12.2521 52.4621 11.6538 53.898L15.3462 55.4364C15.7479 54.4723 16.3029 53.6427 17.0142 52.9314L14.1858 50.103ZM11.6724 53.8549C11.0207 55.3211 10.7 56.8823 10.7 58.5172H14.7C14.7 57.4187 14.9126 56.4133 15.3276 55.4795L11.6724 53.8549ZM10.7 58.5172C10.7 60.152 11.0207 61.7133 11.6724 63.1795L15.3276 61.5549C14.9126 60.6211 14.7 59.6157 14.7 58.5172H10.7ZM11.6538 63.1364C12.2521 64.5723 13.0971 65.8427 14.1858 66.9314L17.0142 64.103C16.3029 63.3917 15.7479 62.5621 15.3462 61.598L11.6538 63.1364ZM14.1858 66.9314C15.2649 68.0105 16.5206 68.865 17.9377 69.4948L19.5623 65.8396C18.5793 65.4027 17.7351 64.8239 17.0142 64.103L14.1858 66.9314ZM17.9808 69.5133C19.4369 70.1201 20.983 70.4172 22.6 70.4172L22.6 66.4172C21.4836 66.4172 20.4631 66.2143 19.5192 65.821L17.9808 69.5133ZM22.6 70.4172C24.2169 70.4172 25.7631 70.1201 27.2192 69.5133L25.6808 65.821C24.7369 66.2143 23.7164 66.4172 22.6 66.4172L22.6 70.4172ZM27.2623 69.4948C28.6793 68.865 29.9351 68.0105 31.0142 66.9314L28.1858 64.103C27.4649 64.8239 26.6206 65.4027 25.6377 65.8396L27.2623 69.4948ZM31.0142 66.9314C32.0933 65.8523 32.9478 64.5965 33.5776 63.1795L29.9224 61.5549C29.4855 62.5378 28.9067 63.3821 28.1858 64.103L31.0142 66.9314ZM33.5962 63.1364C34.2029 61.6803 34.5 60.1341 34.5 58.5172L30.5 58.5172C30.5 59.6336 30.2971 60.6541 29.9038 61.598L33.5962 63.1364ZM32.55 12.9996V10.9996H30.55V12.9996H32.55ZM41 12.9996H43V10.9996H41V12.9996ZM41 37.5996V39.5996H43V37.5996H41ZM31.9 37.5996L30.1871 38.632L30.7703 39.5996H31.9V37.5996ZM27.45 30.9996L25.85 32.1996L25.8549 32.2061L25.8598 32.2125L27.45 30.9996ZM23.15 25.8996L24.5811 24.5025L24.5727 24.4939L24.5642 24.4854L23.15 25.8996ZM19.35 22.6496L18.2294 24.3062L19.35 22.6496ZM13.9 22.5996L12.4858 21.1854L12.4858 21.1854L13.9 22.5996ZM13.9 27.9996L12.4858 29.4138H12.4858L13.9 27.9996ZM16.6 29.0996H18.6V27.0996H16.6V29.0996ZM16.6 37.5996V39.5996H18.6V37.5996H16.6ZM11.85 36.6496L11.0377 38.4772L11.0474 38.4815L11.0571 38.4857L11.85 36.6496ZM7.95 33.9996L9.36421 32.5854H9.36421L7.95 33.9996ZM5.3 30.0996L7.13612 29.3067L7.13192 29.297L7.12762 29.2873L5.3 30.0996ZM5.3 20.5496L7.12073 21.3772L7.13195 21.3525L7.1425 21.3276L5.3 20.5496ZM7.95 16.6496L9.34295 18.0848L9.36437 18.064L9.38516 18.0426L7.95 16.6496ZM11.85 13.9996L12.6279 15.8421L12.6529 15.8316L12.6776 15.8203L11.85 13.9996ZM32.55 23.7996L30.9925 25.0543L34.55 29.4705L34.55 23.7996H32.55ZM32.55 14.9996H41V10.9996H32.55V14.9996ZM39 12.9996L39 37.5996H43L43 12.9996H39ZM41 35.5996H31.9V39.5996H41V35.5996ZM33.6129 36.5672C32.1141 34.0804 30.5903 31.819 29.0402 29.7867L25.8598 32.2125C27.3097 34.1135 28.7526 36.2521 30.1871 38.632L33.6129 36.5672ZM29.05 29.7996C27.5115 27.7483 26.0222 25.9787 24.5811 24.5025L21.7189 27.2967C23.0111 28.6205 24.3885 30.2509 25.85 32.1996L29.05 29.7996ZM24.5642 24.4854C23.1104 23.0316 21.7445 21.8548 20.4706 20.993L18.2294 24.3062C19.2222 24.9778 20.3896 25.9677 21.7358 27.3138L24.5642 24.4854ZM20.4706 20.993C19.2708 20.1814 17.93 19.4996 16.6 19.4996L16.6 23.4996C16.5987 23.4996 16.7322 23.5032 17.0409 23.6323C17.3409 23.7577 17.7346 23.9715 18.2294 24.3062L20.4706 20.993ZM16.6 19.4996C15.0198 19.4996 13.606 20.0652 12.4858 21.1854L15.3142 24.0138C15.6607 23.6674 16.0468 23.4996 16.6 23.4996L16.6 19.4996ZM12.4858 21.1854C11.3656 22.3056 10.8 23.7194 10.8 25.2996H14.8C14.8 24.7464 14.9678 24.3603 15.3142 24.0138L12.4858 21.1854ZM10.8 25.2996C10.8 26.8798 11.3656 28.2936 12.4858 29.4138L15.3142 26.5854C14.9678 26.2389 14.8 25.8528 14.8 25.2996H10.8ZM12.4858 29.4138C13.606 30.534 15.0198 31.0996 16.6 31.0996V27.0996C16.0468 27.0996 15.6607 26.9319 15.3142 26.5854L12.4858 29.4138ZM14.6 29.0996L14.6 37.5996H18.6V29.0996H14.6ZM16.6 35.5996C15.1549 35.5996 13.8434 35.3319 12.6429 34.8135L11.0571 38.4857C12.7899 39.234 14.6451 39.5996 16.6 39.5996V35.5996ZM12.6623 34.822C11.3741 34.2495 10.2812 33.5024 9.36421 32.5854L6.53579 35.4138C7.81879 36.6968 9.32593 37.7164 11.0377 38.4772L12.6623 34.822ZM9.36421 32.5854C8.40889 31.6301 7.66898 30.5407 7.13612 29.3067L3.46387 30.8925C4.19768 32.5918 5.22444 34.1025 6.53579 35.4138L9.36421 32.5854ZM7.12762 29.2873C6.57869 28.0522 6.3 26.73 6.3 25.2996H2.3C2.3 27.2692 2.68798 29.147 3.47237 30.9119L7.12762 29.2873ZM6.3 25.2996C6.3 23.869 6.57869 22.5697 7.12073 21.3772L3.47926 19.722C2.68798 21.4628 2.3 23.3302 2.3 25.2996H6.3ZM7.1425 21.3276C7.67484 20.0667 8.40799 18.9922 9.34295 18.0848L6.55705 15.2144C5.22534 16.507 4.19182 18.0325 3.4575 19.7717L7.1425 21.3276ZM9.38516 18.0426C10.2926 17.1076 11.3671 16.3745 12.6279 15.8421L11.0721 12.1571C9.33288 12.8914 7.80738 13.9249 6.51484 15.2567L9.38516 18.0426ZM12.6776 15.8203C13.8701 15.2783 15.1694 14.9996 16.6 14.9996L16.6 10.9996C14.6306 10.9996 12.7632 11.3876 11.0224 12.1789L12.6776 15.8203ZM16.6 14.9996C20.458 14.9996 25.2542 17.9309 30.9925 25.0543L34.1075 22.5449C28.2458 15.2683 22.4087 10.9996 16.6 10.9996L16.6 14.9996ZM34.55 23.7996V12.9996H30.55V23.7996H34.55ZM39.75 1.75977L41.1642 0.345551L39.75 1.75977ZM39.75 7.90977L41.1362 9.35143L41.1645 9.32425L41.1917 9.29598L39.75 7.90977ZM33.6 7.90977L35.0142 6.49555L33.6 7.90977ZM33.6 1.75977L34.9862 3.20143L35.0145 3.17425L35.0417 3.14598L33.6 1.75977ZM36.65 2.45976C37.307 2.45976 37.8352 2.6734 38.3358 3.17398L41.1642 0.345551C39.9315 -0.887199 38.393 -1.54024 36.65 -1.54024V2.45976ZM38.3358 3.17398C38.7864 3.62463 39 4.12935 39 4.80977H43C43 3.09018 42.3802 1.56156 41.1642 0.345551L38.3358 3.17398ZM39 4.80977C39 5.49179 38.7842 6.02865 38.3083 6.52355L41.1917 9.29598C42.3825 8.05755 43 6.52774 43 4.80977H39ZM38.3638 6.4681C37.8689 6.94397 37.332 7.15977 36.65 7.15977V11.1598C38.368 11.1598 39.8978 10.5422 41.1362 9.35143L38.3638 6.4681ZM36.65 7.15977C35.9696 7.15977 35.4649 6.94621 35.0142 6.49555L32.1858 9.32398C33.4018 10.54 34.9304 11.1598 36.65 11.1598V7.15977ZM35.0142 6.49555C34.5136 5.99497 34.3 5.46676 34.3 4.80977H30.3C30.3 6.55277 30.953 8.09122 32.1858 9.32398L35.0142 6.49555ZM34.3 4.80977C34.3 4.15498 34.5109 3.65852 34.9862 3.20143L32.2138 0.3181C30.9558 1.52768 30.3 3.06454 30.3 4.80977H34.3ZM35.0417 3.14598C35.4987 2.67062 35.9952 2.45976 36.65 2.45976V-1.54024C34.9048 -1.54024 33.3679 -0.884422 32.1583 0.37355L35.0417 3.14598Z" fill="white"/>
</g>
<defs>
<filter id="filter0_d_2396_212" x="0.25" y="0.459717" width="44.75" height="84.4075" filterUnits="userSpaceOnUse" color-interpolation-filters="sRGB">
<feFlood flood-opacity="0" result="BackgroundImageFix"/>
<feColorMatrix in="SourceAlpha" type="matrix" values="0 0 0 0 0 0 0 0 0 0 0 0 0 0 0 0 0 0 127 0" result="hardAlpha"/>
<feOffset dy="4"/>
<feGaussianBlur stdDeviation="2"/>
<feComposite in2="hardAlpha" operator="out"/>
<feColorMatrix type="matrix" values="0 0 0 0 0 0 0 0 0 0 0 0 0 0 0 0 0 0 0.25 0"/>
<feBlend mode="normal" in2="BackgroundImageFix" result="effect1_dropShadow_2396_212"/>
<feBlend mode="normal" in="SourceGraphic" in2="effect1_dropShadow_2396_212" result="shape"/>
</filter>
</defs>
</svg>
